<?xml version="1.0" encoding="UTF-8" standalone="no"?>
<svg
   xmlns:dc="http://purl.org/dc/elements/1.1/"
   xmlns:cc="http://creativecommons.org/ns#"
   xmlns:rdf="http://www.w3.org/1999/02/22-rdf-syntax-ns#"
   xmlns:svg="http://www.w3.org/2000/svg"
   xmlns="http://www.w3.org/2000/svg"
   xmlns:sodipodi="http://sodipodi.sourceforge.net/DTD/sodipodi-0.dtd"
   xmlns:inkscape="http://www.inkscape.org/namespaces/inkscape"
   width="64"
   height="64"
   viewBox="0 0 16.933333 16.933334"
   version="1.1"
   id="svg8"
   inkscape:version="0.92.4 (5da689c313, 2019-01-14)"
   sodipodi:docname="22-Admin panel.svg">
  <defs
     id="defs2" />
  <sodipodi:namedview
     id="base"
     pagecolor="#ffffff"
     bordercolor="#959595"
     borderopacity="1"
     inkscape:pageopacity="0"
     inkscape:pageshadow="2"
     inkscape:zoom="5.6568543"
     inkscape:cx="61.392056"
     inkscape:cy="20.356432"
     inkscape:document-units="px"
     inkscape:current-layer="layer1"
     inkscape:document-rotation="0"
     showgrid="false"
     units="px"
     inkscape:window-width="1920"
     inkscape:window-height="1040"
     inkscape:window-x="0"
     inkscape:window-y="0"
     inkscape:window-maximized="1"
     inkscape:pagecheckerboard="0"
     inkscape:snap-bbox="true"
     inkscape:bbox-nodes="true">
    <inkscape:grid
       type="xygrid"
       id="grid822" />
  </sodipodi:namedview>
  <metadata
     id="metadata5">
    <rdf:RDF>
      <cc:Work
         rdf:about="">
        <dc:format>image/svg+xml</dc:format>
        <dc:type
           rdf:resource="http://purl.org/dc/dcmitype/StillImage" />
      </cc:Work>
    </rdf:RDF>
  </metadata>
  <g
     inkscape:label="22-Admin panel"
     inkscape:groupmode="layer"
     id="layer1">
    <path
       style="opacity:1;fill:#000000;fill-opacity:1;stroke:none;stroke-width:2;stroke-linecap:round;stroke-miterlimit:4;stroke-dasharray:none"
       d="m 8.0019531,0 c -1.1253169,-7.559055e-5 -2,0.87663656 -2,2.0019531 V 24.072266 c 0.5980725,-0.11641 1.2309578,-0.02251 1.8164063,0.214843 0.093732,0.03817 0.1851233,0.08122 0.2773437,0.126953 C 8.2332779,18.376115 8.0731372,6.7589261 8.0175781,3.1152344 8.0062395,2.4992092 8.5008477,1.9999244 9.1191406,2 l 51.7617184,0.00391 C 61.498888,2.0040953 61.999811,2.5050185 62,3.1230469 V 33.169922 C 62.287622,33.065985 62.611523,33.002268 62.996094,33 63.347212,32.998 63.685283,33.06082 64,33.173828 V 2.0058594 C 64,0.88054278 63.125275,0.00398184 62,0.00390625 Z M 10.994141,4 C 10.422828,3.9999244 9.9979335,4.4247804 9.9980469,4.9960938 l 0.00391,21.1894532 c 0.575357,0.911433 0.953574,2.088749 0.996094,3.496094 l 0.002,0.002 v 0.002 0.002 0.002 0.002 0.002 0.002 0.002 0.002 0.002 0.002 0.002 0.002 0.002 0.002 l -0.002,0.002 v 4.289062 c 0,0.167433 0.08843,0.373434 0.400391,0.751953 0.274393,0.332977 0.691467,0.742837 1.152343,1.248047 l 27.777344,0.0078 c -0.0076,-1.216441 0.575719,-2.409045 1.710937,-3.064454 1.664315,-0.960906 3.816513,-0.378894 4.777344,1.285157 l 1.179688,2.044922 v -9.263672 h -8.998047 c -0.553058,-0.0022 -0.999344,-0.452801 -0.996094,-1.00586 0.0021,-0.549241 0.446853,-0.993939 0.996094,-0.996093 h 8.998047 c 0,-1.6447 1.36116,-3.003907 3.005859,-3.003907 1.644703,0 2.996094,1.359207 2.996094,3.003907 h 2.990234 c 0.549241,0.0021 0.993977,0.446852 0.996094,0.996093 0.0032,0.553059 -0.443035,1.003744 -0.996094,1.00586 h -2.990234 v 4.18164 c 0.382031,-0.14211 0.494082,-0.158461 1.003906,-0.189453 1.404624,0.0076 2.297564,0.942274 2.519531,1.400391 0.125103,-0.103181 0.714044,-0.401057 1.482422,-0.396485 0.373418,0.0022 0.703294,0.06668 0.996094,0.167969 L 59.996094,5.0019531 C 59.996014,4.4306397 59.571279,4.0058972 59,4.0058594 Z m 40.007812,4.0058594 c 1.644699,0 2.996094,1.3513564 2.996094,2.9960936 h 3.003906 c 0.553058,0.0022 0.999348,0.452802 0.996094,1.005859 -0.0021,0.549241 -0.446853,0.993939 -0.996094,0.996094 H 53.998047 C 53.998047,14.648605 52.646652,16 51.001953,16 49.357254,16 47.996094,14.648605 47.996094,13.003906 h -8.998047 c -0.549241,-0.0021 -0.993977,-0.446853 -0.996094,-0.996094 -0.0032,-0.553057 0.443036,-1.003743 0.996094,-1.005859 h 8.998047 c 0,-1.6447372 1.36116,-2.9960936 3.005859,-2.9960936 z m 0,1.9999996 c -0.571313,0 -1.005859,0.42478 -1.005859,0.996094 v 2.001953 c 0,0.571275 0.434546,1.003906 1.005859,1.003906 0.571276,0 0.992314,-0.432631 0.996094,-1.003906 v -2.001953 c 0,-0.571314 -0.424818,-0.996094 -0.996094,-0.996094 z m -28,0.992188 c 6.06327,0 11,4.93673 11,11 v 4 c 0.0032,0.556838 -0.449022,1.009071 -1.005859,1.005859 H 13 c -0.553058,-0.0022 -0.999306,-0.452838 -0.996094,-1.005859 v -4 c 0,-6.06327 4.93474,-11 10.998047,-11 z m -1.003906,2.056641 c -1.738885,0.191622 -3.32556,0.875662 -4.619141,1.910156 l 0.669922,0.669922 c 0.393033,0.390955 0.393033,1.027013 0,1.417968 -0.390047,0.387817 -1.020109,0.387817 -1.410156,0 l -0.673828,-0.673828 c -1.034118,1.294715 -1.715875,2.883066 -1.90625,4.623047 H 15 c 0.549241,0.0021 0.993978,0.446853 0.996094,0.996094 0.0022,0.552264 -0.443792,1.001752 -0.996094,1.003906 h -0.996094 v 2 h 4.998047 c 0,-2.197266 1.802696,-4 4,-4 0.470513,0 0.923201,0.08282 1.34375,0.234375 l 1.949219,-1.939453 c 0.187464,-0.188598 0.44283,-0.294922 0.708984,-0.294922 0.263433,0.0021 0.515446,0.108213 0.701172,0.294922 0.387855,0.390085 0.387855,1.020071 0,1.410156 l -1.683594,1.681641 c 0.610054,0.702955 0.982422,1.617149 0.982422,2.613281 H 32 v -2 H 31.003906 C 30.44858,23.004153 29.997846,22.553373 30,21.998047 c 0.0022,-0.552302 0.451604,-0.998248 1.003906,-0.996094 h 0.941406 c -0.190488,-1.739981 -0.872133,-3.328332 -1.90625,-4.623047 l -0.673828,0.673828 c -0.390917,0.393033 -1.027013,0.393033 -1.417968,0 -0.393033,-0.390954 -0.393033,-1.027014 0,-1.417968 l 0.673828,-0.673828 c -1.294715,-1.034154 -2.883104,-1.715875 -4.623047,-1.90625 v 0.949218 C 23.995847,14.553147 23.551194,14.997883 23.001953,15 22.449651,15.0022 22.000201,14.556209 21.998047,14.003906 Z m 21,1.949218 c 1.644699,0 3.005859,1.351395 3.005859,2.996094 h 10.998047 c 0.553058,0.0022 0.999348,0.452801 0.996094,1.005859 -0.0021,0.549204 -0.446853,0.99394 -0.996094,0.996094 H 46.003906 c 0,1.644699 -1.36116,3.003906 -3.005859,3.003906 -1.644699,0 -2.996094,-1.359207 -2.996094,-3.003906 H 38.998047 C 38.448806,19.999853 38.00407,19.555063 38.001953,19.005859 37.998756,18.452801 38.444989,18.002154 38.998047,18 h 1.003906 c 0,-1.644699 1.351395,-2.996094 2.996094,-2.996094 z m 0,2 c -0.571314,0 -0.996094,0.424818 -0.996094,0.996094 v 2.001953 c 0,0.571275 0.42478,1.003906 0.996094,1.003906 0.571275,0 1.005859,-0.432631 1.005859,-1.003906 V 18 c 0,-0.571276 -0.434584,-0.996094 -1.005859,-0.996094 z M 4.0078125,20.654297 C 2.6012613,21.123412 1.587849,22.032337 0.96679688,23.052734 0.23980472,24.247254 0,25.559507 0,26.65625 v 8.511719 c 0,1.770519 0.8031539,3.946203 1.5566406,6.060547 0.3768189,1.057171 0.7485769,2.082004 1.0195313,2.9375 0.2709921,0.855533 0.4199218,1.5801 0.4199219,1.830078 v 3.779297 C 3.528289,49.295239 4.2315587,49.001953 4.9980469,49.001953 H 19.001953 c 0.459477,0 0.894466,0.105126 1.285156,0.292969 0.169701,-0.684699 0.515145,-1.617307 0.90625,-2.714844 0.459326,-1.288894 0.936531,-2.822849 1.080079,-4.576172 H 15 C 14.9979,42.553109 14.553147,42.997846 14.003906,43 13.451641,43.0022 13.002154,42.556171 13,42.003906 12.996183,39.775383 12.176022,38.589391 11.25,37.544922 10.78697,37.022704 10.291739,36.560648 9.8554688,36.03125 9.4191601,35.501851 8.9980469,34.834356 8.9980469,34.001953 V 29.742188 C 8.9594957,28.467428 8.5782914,27.56322 8.0566406,26.904297 7.6979635,26.48991 7.3639996,26.260372 7.0644531,26.138672 6.662633,25.975358 6.3659915,26.017969 6.2382812,26.087891 c -0.127748,0.06992 -0.2363281,0.138687 -0.2363281,0.61914 v 7.300781 c -0.0011,0.553058 -0.450848,1.000201 -1.0039062,0.998047 -0.5499969,-0.0021 -0.9949977,-0.44805 -0.9960938,-0.998047 -0.00389,-4.453352 5.526e-4,-8.900449 0.00586,-13.353515 z m 18.9941405,2.347656 c -1.116435,0 -2,0.883603 -2,2 h 4 c 0,-1.116397 -0.883603,-2 -2,-2 z m 28,1 c -0.571275,0 -1.009639,0.432592 -1.005859,1.003906 v 15 c -0.01512,1.008794 -1.34483,1.361996 -1.859375,0.494141 l -3.048828,-5.277344 c -0.424139,-0.734513 -1.318146,-0.971013 -2.052735,-0.546875 -0.733568,0.423496 -0.92748,1.280398 -0.515625,2.105469 l 7.09961,14.224609 H 62.111328 C 62.305974,50.098924 62.724354,49.2862 63.085938,48.472656 63.574782,47.372776 64,46.281651 64,45.003906 v -6.998047 -2 C 64,35.434545 63.538456,35.005922 62.996094,35.001953 62.461892,34.998136 62,35.434545 62,36.005859 v 2 c 0,1.333644 -2,1.333644 -2,0 v -2 -1.003906 c 0,-0.571313 -0.424743,-0.996094 -0.996094,-0.996094 -0.571309,0 -1.005859,0.424781 -1.005859,0.996094 v 3.003906 c 0,1.333644 -2,1.333644 -2,0 V 35.001953 34.005859 C 55.998047,33.434545 55.57327,33 55.001953,33 c -0.571272,0 -1.003906,0.434545 -1.003906,1.005859 v 4 c 0,1.333644 -2,1.333644 -2,0 v -4 -9 c 0,-0.571314 -0.42478,-1.003906 -0.996094,-1.003906 z m -36.990234,14 c 0.314456,0.580687 0.581862,1.24349 0.759765,2 l 27.117188,0.0039 -0.998047,-2 z M 4,51 c -1.1080063,0 -2,0.892028 -2,2 v 9 c 0,1.107965 0.8919937,2 2,2 h 16 c 1.107968,0 2,-0.892035 2,-2 v -9 c 0,-1.107972 -0.892032,-2 -2,-2 z m 46,1.919922 c -1.107893,-0.01512 -2,0.891994 -2,2 V 62 c 0,1.108003 0.891994,2 2,2 h 12 c 1.10801,0 2,-0.891997 2,-2 v -6.919922 c 0,-1.10801 -0.892107,-1.98526 -2,-2 z"
       transform="scale(0.26458334)"
       id="rect820"
       inkscape:connector-curvature="0"
       sodipodi:nodetypes="ccccccccccccccccccccccccccccccccccccccccccccccccccccccccccccccccccccccccccccccccccccccccccccccccccccccccccccccccccccccccccccccccccccccccccccccccccccccccccccccccccccccccccccccccccccccccccccccccccccccccccccccccccccccccccccccccccccccccc" />
  </g>
</svg>
