<svg xmlns="http://www.w3.org/2000/svg" viewBox="0 0 88 88"><title>Artboard-14</title><g id="Wallet"><path d="M73.9988,58V46a8.9259,8.9259,0,0,0-1.23-4.53l-6.25,6.25a7.0025,7.0025,0,0,1,1.48,4.28v6Z" style="fill:#ffffff"/><path d="M67.9988,79h3a3.0088,3.0088,0,0,0,3-3V74h-6Z" style="fill:#ffffff"/><path d="M76.9988,60h-20a6.0048,6.0048,0,0,0-6,6,6.009,6.009,0,0,0,6,6h20a5.0018,5.0018,0,0,0,5-5V55a4.9848,4.9848,0,0,1-5,5Zm-20,8a2,2,0,1,1,2-2A2.0059,2.0059,0,0,1,56.9988,68Z" style="fill:#ffffff"/><path d="M75.9988,58a4,4,0,1,0,0-8Z" style="fill:#ffffff"/><path d="M34.9988,1h-19a1.0029,1.0029,0,0,0-1,1V42.76l20-20Zm-8,12a4,4,0,1,1-7.46-2,4,4,0,1,1,6.92,0A3.9711,3.9711,0,0,1,26.9988,13Z" style="fill:#ffffff"/><path d="M23.5894,12.9534c-.0374.0044-.076.0066-.114.01-.0936.0116-.188.0166-.2829.0217A4.5667,4.5667,0,0,1,21.0588,12.5a2.074,2.074,0,0,0-.06.5,2,2,0,1,0,4,0,2.074,2.074,0,0,0-.06-.5A3.6577,3.6577,0,0,1,23.5894,12.9534Z" style="fill:#ffffff"/><path d="M22.9988,7a2.0059,2.0059,0,0,0-2,2,2,2,0,0,0,4,0A2.0059,2.0059,0,0,0,22.9988,7Z" style="fill:#ffffff"/><polygon points="40.999 1 36.999 1 36.999 20.76 40.999 16.76 40.999 1" style="fill:#ffffff"/><path d="M48.9988,2a1.0029,1.0029,0,0,0-1-1h-5V14.76l6-6Z" style="fill:#ffffff"/><circle cx="56.9988" cy="29" r="1" style="fill:#ffffff"/><path d="M21.2449,45,52.7517,13.4932a1,1,0,0,1,1.41-.0039,4.12,4.12,0,0,0,5.6738,0,1,1,0,0,1,1.41.0039l11.26,11.26a1,1,0,0,1,.0039,1.41,4.0221,4.0221,0,0,0,0,5.6738,1,1,0,0,1-.0039,1.41L60.7527,45h.2461a6.898,6.898,0,0,1,1.97.28,7.005,7.005,0,0,1,2.12,1.05l16.62-16.62a1.008,1.008,0,0,0,0-1.42l-24-24a1.008,1.008,0,0,0-1.42,0L15.5788,45Z" style="fill:#ffffff"/><path d="M60.4783,15.5532a6.15,6.15,0,0,1-6.959,0L24.073,45H57.9246l12.52-12.521a6.0225,6.0225,0,0,1,0-6.958ZM52.7058,42.707a1,1,0,0,1-1.4141,0l-.8142-.8138a2.394,2.394,0,0,1-3.1858-.1857,1,1,0,0,1,1.4141-1.415.4137.4137,0,0,0,.5859,0l1-.9995a.4144.4144,0,0,0,0-.5855l-.2792-.28a.4137.4137,0,0,0-.4786-.0771l-2.1757,1.0879a2.4111,2.4111,0,0,1-2.7872-.4517l-.2793-.28a2.3921,2.3921,0,0,1-.1868-3.1872l-.8132-.8128a1,1,0,1,1,1.4141-1.414l.8142.8138a2.4106,2.4106,0,0,1,3.1858.1857,1,1,0,0,1-1.4141,1.415.4137.4137,0,0,0-.5859,0l-1,.9995a.4144.4144,0,0,0,0,.5855l.2793.28a.4128.4128,0,0,0,.4785.0771l2.1758-1.0879a2.4128,2.4128,0,0,1,2.7871.4517l.2793.28a2.3923,2.3923,0,0,1,.1869,3.1872l.8131.8128A1,1,0,0,1,52.7058,42.707ZM56.9988,32a3,3,0,1,1,3-3A3.0033,3.0033,0,0,1,56.9988,32Z" style="fill:#ffffff"/><path d="M48.9988,66a8.0106,8.0106,0,0,1,8-8h9V52a4.9884,4.9884,0,0,0-5-5h-50a5.0018,5.0018,0,0,1-5-5V82a5.0018,5.0018,0,0,0,5,5h50a5.0018,5.0018,0,0,0,5-5V74h-9A8.0106,8.0106,0,0,1,48.9988,66Zm14-14h1v2h-1a1,1,0,0,1,0-2Zm-54,30a2.7719,2.7719,0,0,1-1-.18V79a1.0029,1.0029,0,0,0,1,1,1,1,0,1,1,0,2Zm0-28a2.7719,2.7719,0,0,1-1-.18V51a1.0029,1.0029,0,0,0,1,1,1,1,0,1,1,0,2Zm54,26h1v2h-1a1,1,0,0,1,0-2Zm-7-28h2a1,1,0,0,1,0,2h-2a1,1,0,0,1,0-2Zm-7,0h2a1,1,0,0,1,0,2h-2a1,1,0,0,1,0-2Zm-33,30h-2a1,1,0,0,1,0-2h2a1,1,0,1,1,0,2Zm0-28h-2a1,1,0,0,1,0-2h2a1,1,0,1,1,0,2Zm7,28h-2a1,1,0,0,1,0-2h2a1,1,0,1,1,0,2Zm0-28h-2a1,1,0,0,1,0-2h2a1,1,0,1,1,0,2Zm7,28h-2a1,1,0,0,1,0-2h2a1,1,0,1,1,0,2Zm0-28h-2a1,1,0,0,1,0-2h2a1,1,0,1,1,0,2Zm7,28h-2a1,1,0,0,1,0-2h2a1,1,0,0,1,0,2Zm0-28h-2a1,1,0,0,1,0-2h2a1,1,0,0,1,0,2Zm7,28h-2a1,1,0,0,1,0-2h2a1,1,0,0,1,0,2Zm0-28h-2a1,1,0,0,1,0-2h2a1,1,0,0,1,0,2Zm7,28h-2a1,1,0,0,1,0-2h2a1,1,0,1,1,0,2Zm8-1a1,1,0,0,1-1,1h-2a1,1,0,0,1,0-2h2A1,1,0,0,1,58.9988,81Z" style="fill:#ffffff"/><path d="M11.9988,45h1V37h-1a4,4,0,1,0,0,8Z" style="fill:#ffffff"/></g></svg>