<?xml version="1.0" encoding="UTF-8"?>
<!DOCTYPE svg PUBLIC "-//W3C//DTD SVG 1.1//EN" "http://www.w3.org/Graphics/SVG/1.1/DTD/svg11.dtd">
<!-- Creator: CorelDRAW -->
<svg xmlns="http://www.w3.org/2000/svg" xml:space="preserve" width="2048px" height="2048px" style="shape-rendering:geometricPrecision; text-rendering:geometricPrecision; image-rendering:optimizeQuality; fill-rule:evenodd; clip-rule:evenodd"
viewBox="0 0 2048 2048"
 xmlns:xlink="http://www.w3.org/1999/xlink">
 <defs>
  <style type="text/css">
   <![CDATA[
    .fil2 {fill:none}
    .fil1 {fill:#00ACC1}
    .fil8 {fill:#424242}
    .fil0 {fill:#4DD0E1}
    .fil7 {fill:#5D4037}
    .fil4 {fill:#8D6E63}
    .fil6 {fill:#F57F17}
    .fil5 {fill:#FDD835}
    .fil3 {fill:#5D4037;fill-rule:nonzero}
   ]]>
  </style>
   <clipPath id="id0">
    <path d="M1024 0c565.539,0 1024,458.461 1024,1024 0,565.539 -458.461,1024 -1024,1024 -565.539,0 -1024,-458.461 -1024,-1024 0,-565.539 458.461,-1024 1024,-1024z"/>
   </clipPath>
 </defs>
 <g id="Layer_x0020_1">
  <metadata id="CorelCorpID_0Corel-Layer"/>
  <path class="fil0" d="M1024 0c565.539,0 1024,458.461 1024,1024 0,565.539 -458.461,1024 -1024,1024 -565.539,0 -1024,-458.461 -1024,-1024 0,-565.539 458.461,-1024 1024,-1024z"/>
  <g style="clip-path:url(#id0)">
   <g id="_341212216">
    <g>
     <polygon id="_3384563041" class="fil1" points="1094.61,575.189 2230.49,1711.07 2232.76,1713.63 2234.97,1716.25 2237.13,1718.92 2239.21,1721.65 2241.24,1724.42 2243.19,1727.24 2245.08,1730.12 2246.91,1733.04 2248.66,1736.01 2250.35,1739.02 2251.96,1742.07 2253.5,1745.17 2254.97,1748.32 2256.36,1751.5 2257.68,1754.72 2258.92,1757.98 2260.08,1761.28 2261.16,1764.62 2262.16,1767.99 2263.09,1771.4 2263.92,1774.83 2264.68,1778.3 2265.35,1781.8 2265.94,1785.34 2266.43,1788.89 2266.84,1792.48 2267.16,1796.09 2267.4,1799.73 2267.54,1803.4 2267.58,1807.08 1131.7,671.199 1131.65,667.514 1131.51,663.851 1131.28,660.212 1130.96,656.599 1130.55,653.012 1130.05,649.453 1129.47,645.922 1128.8,642.421 1128.04,638.951 1127.2,635.513 1126.28,632.108 1125.28,628.737 1124.2,625.401 1123.04,622.101 1121.8,618.84 1120.48,615.617 1119.09,612.434 1117.62,609.292 1116.08,606.192 1114.47,603.135 1112.78,600.123 1111.03,597.156 1109.2,594.235 1107.31,591.362 1105.36,588.538 1103.33,585.763 1101.24,583.041 1099.09,580.369 1096.88,577.752 "/>
     <polygon id="_338456448" class="fil1" points="1131.7,671.199 2267.58,1807.08 2267.54,1810.77 2267.4,1814.43 2267.16,1818.07 2266.84,1821.68 2266.43,1825.27 2265.94,1828.83 2265.35,1832.36 2264.68,1835.86 2263.92,1839.33 2263.09,1842.77 2262.16,1846.17 2261.16,1849.54 2260.08,1852.88 2258.92,1856.18 2257.68,1859.44 2256.36,1862.66 2254.97,1865.84 2253.5,1868.99 2251.96,1872.09 2250.35,1875.14 2248.66,1878.15 2246.91,1881.12 2245.08,1884.04 2243.19,1886.92 2241.24,1889.74 2239.21,1892.51 2237.13,1895.24 2234.97,1897.91 2232.76,1900.53 2230.49,1903.09 2228.15,1905.6 2225.76,1908.05 1089.88,772.166 1092.27,769.716 1094.61,767.207 1096.88,764.644 1099.09,762.027 1101.24,759.355 1103.33,756.631 1105.36,753.858 1107.31,751.034 1109.2,748.16 1111.03,745.24 1112.78,742.273 1114.47,739.26 1116.08,736.203 1117.62,733.104 1119.09,729.961 1120.48,726.778 1121.8,723.556 1123.04,720.293 1124.2,716.995 1125.28,713.659 1126.28,710.288 1127.2,706.883 1128.04,703.445 1128.8,699.975 1129.47,696.474 1130.05,692.944 1130.55,689.384 1130.96,685.797 1131.28,682.184 1131.51,678.546 1131.65,674.884 "/>
     <polygon id="_338426616" class="fil1" points="1089.88,772.166 2225.76,1908.05 2224.06,1909.72 2222.34,1911.35 2220.59,1912.97 2218.81,1914.55 2217.01,1916.1 2215.18,1917.62 2213.33,1919.11 2211.45,1920.58 2209.55,1922.01 2207.62,1923.41 2205.66,1924.78 2203.69,1926.11 2201.69,1927.42 2199.67,1928.69 2197.62,1929.93 2195.55,1931.13 2193.46,1932.3 2191.35,1933.44 2189.22,1934.54 2187.07,1935.61 2184.89,1936.64 2182.7,1937.64 2180.49,1938.6 2178.26,1939.52 2176.01,1940.41 2173.74,1941.26 2171.45,1942.07 2169.15,1942.85 2166.83,1943.58 2164.49,1944.28 2162.13,1944.94 2159.76,1945.56 1023.88,809.676 1026.25,809.057 1028.61,808.399 1030.94,807.701 1033.27,806.965 1035.57,806.19 1037.86,805.378 1040.13,804.529 1042.38,803.642 1044.61,802.717 1046.82,801.757 1049.01,800.761 1051.19,799.729 1053.34,798.661 1055.47,797.559 1057.58,796.421 1059.67,795.25 1061.74,794.045 1063.78,792.806 1065.81,791.535 1067.81,790.231 1069.78,788.894 1071.74,787.525 1073.66,786.126 1075.57,784.694 1077.45,783.232 1079.3,781.74 1081.13,780.217 1082.93,778.665 1084.71,777.083 1086.46,775.472 1088.18,773.834 "/>
     <polygon id="_338426424" class="fil1" points="1338.14,946.772 2474.02,2082.65 2476.89,2085.76 2479.71,2088.9 2482.48,2092.08 2485.2,2095.29 2487.87,2098.53 2490.49,2101.8 2493.06,2105.11 2495.57,2108.45 2498.04,2111.83 2500.45,2115.24 2502.8,2118.68 2505.1,2122.16 2507.35,2125.67 2509.54,2129.21 2511.67,2132.79 2513.74,2136.39 2515.75,2140.04 2517.71,2143.71 1381.82,1007.83 1379.87,1004.15 1377.86,1000.51 1375.78,996.903 1373.65,993.328 1371.47,989.786 1369.22,986.277 1366.92,982.801 1364.56,979.358 1362.15,975.948 1359.69,972.572 1357.17,969.23 1354.6,965.92 1351.99,962.645 1349.31,959.403 1346.59,956.195 1343.83,953.02 1341.01,949.88 "/>
     <polygon id="_338426712" class="fil1" points="1578.45,893.534 2714.33,2029.42 2715.73,2031.29 2716.95,2033.29 2717.97,2035.42 2718.79,2037.65 2719.39,2039.98 2719.76,2042.39 2719.88,2044.88 1584,908.995 1583.88,906.51 1583.51,904.097 1582.91,901.768 1582.09,899.534 1581.07,897.409 1579.85,895.405 "/>
     <polygon id="_338426328" class="fil1" points="1584,908.995 2719.88,2044.88 2719.76,2047.36 2719.39,2049.78 2718.79,2052.1 2717.97,2054.34 2716.95,2056.46 2715.73,2058.47 2714.33,2060.34 2712.76,2062.06 2711.04,2063.63 2709.17,2065.03 2707.16,2066.25 2705.04,2067.27 2702.8,2068.09 2700.47,2068.69 2698.06,2069.06 2695.58,2069.18 1559.7,933.301 1562.18,933.176 1564.59,932.807 1566.92,932.208 1569.16,931.391 1571.28,930.367 1573.29,929.149 1575.16,927.751 1576.88,926.181 1578.45,924.455 1579.85,922.585 1581.07,920.58 1582.09,918.455 1582.91,916.222 1583.51,913.893 1583.88,911.48 "/>
     <polygon id="_338426736" class="fil1" points="1559.7,933.301 2695.58,2069.18 2692.51,2069.27 2689.5,2069.53 2686.53,2069.95 2683.61,2070.53 2680.74,2071.26 2677.91,2072.14 2675.13,2073.16 2672.38,2074.31 2669.68,2075.6 2667.02,2077.01 2664.39,2078.53 2661.81,2080.17 2659.25,2081.91 2656.73,2083.76 2654.25,2085.69 2651.79,2087.72 2649.37,2089.83 2646.97,2092.01 2644.6,2094.27 2642.25,2096.59 2639.93,2098.97 2637.64,2101.41 2635.36,2103.89 2633.11,2106.42 2630.87,2108.98 2628.66,2111.57 2626.46,2114.19 2624.27,2116.82 2622.1,2119.47 2619.94,2122.12 2617.79,2124.78 2615.65,2127.43 1479.77,991.544 1481.91,988.894 1484.06,986.239 1486.22,983.584 1488.39,980.937 1490.58,978.303 1492.78,975.687 1494.99,973.096 1497.23,970.535 1499.48,968.01 1501.76,965.527 1504.05,963.092 1506.37,960.711 1508.72,958.389 1511.09,956.131 1513.48,953.946 1515.91,951.837 1518.36,949.81 1520.85,947.873 1523.37,946.029 1525.93,944.286 1528.51,942.649 1531.14,941.123 1533.8,939.716 1536.5,938.431 1539.25,937.276 1542.03,936.257 1544.86,935.378 1547.73,934.646 1550.65,934.066 1553.62,933.644 1556.63,933.388 "/>
     <polygon id="_338426952" class="fil1" points="1479.77,991.544 2615.65,2127.43 2613.4,2130.22 2611.16,2132.99 2608.92,2135.75 2606.68,2138.5 2604.43,2141.22 2602.19,2143.91 2599.94,2146.57 2597.68,2149.19 2595.42,2151.78 2593.15,2154.33 2590.86,2156.83 2588.56,2159.28 2586.24,2161.68 2583.91,2164.02 2581.56,2166.3 2579.18,2168.51 2576.78,2170.66 2574.36,2172.74 2571.91,2174.73 2569.43,2176.66 2566.91,2178.49 2564.37,2180.24 2561.79,2181.9 2559.17,2183.47 2556.52,2184.94 2553.83,2186.3 2551.09,2187.56 2548.31,2188.71 2545.48,2189.75 2542.6,2190.67 2539.68,2191.47 2536.7,2192.15 1400.82,1056.27 1403.8,1055.59 1406.72,1054.79 1409.6,1053.87 1412.43,1052.83 1415.21,1051.68 1417.94,1050.42 1420.64,1049.05 1423.29,1047.59 1425.91,1046.02 1428.49,1044.36 1431.03,1042.61 1433.54,1040.77 1436.02,1038.85 1438.48,1036.85 1440.9,1034.78 1443.3,1032.63 1445.67,1030.41 1448.03,1028.14 1450.36,1025.79 1452.68,1023.4 1454.98,1020.95 1457.27,1018.45 1459.54,1015.9 1461.8,1013.31 1464.06,1010.69 1466.31,1008.02 1468.55,1005.33 1470.79,1002.61 1473.04,999.872 1475.28,997.111 1477.52,994.334 "/>
     <polygon id="_338426832" class="fil1" points="1400.82,1056.27 2536.7,2192.15 2537.2,2194.04 2537.69,2195.93 2538.16,2197.83 2538.62,2199.73 2539.07,2201.64 2539.49,2203.56 2539.91,2205.49 2540.3,2207.42 2540.69,2209.36 2541.05,2211.3 2541.4,2213.26 2541.74,2215.22 2542.06,2217.18 2542.36,2219.15 2542.65,2221.14 2542.92,2223.12 2543.18,2225.12 2543.42,2227.12 2543.65,2229.12 2543.86,2231.14 2544.05,2233.16 2544.22,2235.18 2544.38,2237.22 2544.53,2239.26 2544.65,2241.31 2544.76,2243.36 2544.85,2245.42 2544.93,2247.49 2544.99,2249.57 2545.03,2251.65 2545.06,2253.74 2545.07,2255.83 1409.19,1119.95 1409.18,1117.85 1409.15,1115.76 1409.11,1113.68 1409.05,1111.61 1408.97,1109.54 1408.88,1107.48 1408.77,1105.43 1408.64,1103.38 1408.5,1101.34 1408.34,1099.3 1408.17,1097.27 1407.97,1095.25 1407.77,1093.24 1407.54,1091.23 1407.3,1089.23 1407.04,1087.24 1406.77,1085.25 1406.48,1083.27 1406.18,1081.3 1405.86,1079.33 1405.52,1077.37 1405.17,1075.42 1404.81,1073.48 1404.42,1071.54 1404.03,1069.6 1403.61,1067.68 1403.18,1065.76 1402.74,1063.85 1402.28,1061.94 1401.81,1060.04 1401.32,1058.15 "/>
     <polygon id="_338426400" class="fil1" points="1409.19,1119.95 2545.07,2255.83 2545.04,2259.32 2544.96,2262.81 2544.83,2266.28 2544.65,2269.74 2544.42,2273.2 2544.14,2276.64 2543.8,2280.07 2543.42,2283.49 2542.99,2286.9 2542.5,2290.3 2541.97,2293.69 2541.39,2297.07 2540.76,2300.43 2540.08,2303.78 2539.35,2307.12 2538.58,2310.45 2537.76,2313.77 2536.89,2317.07 2535.97,2320.36 2535,2323.63 2533.99,2326.89 2532.94,2330.14 2531.83,2333.38 2530.69,2336.6 2529.49,2339.8 2528.25,2342.99 2526.97,2346.17 2525.64,2349.33 2524.27,2352.48 2522.85,2355.61 2521.39,2358.73 2519.89,2361.83 1384,1225.94 1385.51,1222.84 1386.97,1219.73 1388.39,1216.6 1389.76,1213.45 1391.09,1210.29 1392.37,1207.11 1393.61,1203.92 1394.8,1200.71 1395.95,1197.49 1397.06,1194.26 1398.11,1191.01 1399.12,1187.75 1400.09,1184.47 1401,1181.18 1401.88,1177.88 1402.7,1174.57 1403.47,1171.24 1404.2,1167.9 1404.88,1164.55 1405.51,1161.18 1406.09,1157.81 1406.62,1154.42 1407.11,1151.02 1407.54,1147.61 1407.92,1144.19 1408.26,1140.76 1408.54,1137.31 1408.77,1133.86 1408.95,1130.4 1409.08,1126.92 1409.16,1123.44 "/>
     <polygon id="_338426784" class="fil1" points="951.416,809.016 2087.3,1944.9 2085.02,1944.26 2082.76,1943.58 2080.51,1942.87 2078.29,1942.13 2076.07,1941.35 2073.88,1940.53 2071.7,1939.68 2069.54,1938.79 2067.4,1937.87 2065.27,1936.91 2063.17,1935.93 2061.08,1934.9 2059.01,1933.85 2056.96,1932.76 2054.93,1931.65 2052.93,1930.5 2050.94,1929.31 2048.97,1928.1 2047.02,1926.86 2045.1,1925.58 2043.2,1924.28 2041.32,1922.95 2039.46,1921.58 2037.63,1920.19 2035.82,1918.77 2034.03,1917.32 2032.27,1915.84 2030.53,1914.34 2028.81,1912.81 2027.12,1911.25 2025.46,1909.66 2023.82,1908.05 887.94,772.166 889.579,773.779 891.243,775.365 892.932,776.924 894.647,778.456 896.385,779.962 898.149,781.438 899.936,782.887 901.746,784.308 903.581,785.701 905.437,787.064 907.318,788.397 909.219,789.701 911.143,790.975 913.088,792.219 915.056,793.431 917.044,794.613 919.052,795.764 921.08,796.882 923.129,797.968 925.197,799.022 927.284,800.043 929.39,801.031 931.515,801.986 933.657,802.907 935.819,803.793 937.997,804.646 940.192,805.463 942.405,806.245 944.633,806.991 946.879,807.702 949.14,808.378 "/>
     <polygon id="_338426976" class="fil1" points="1309.39,1320.83 2445.27,2456.72 2436.66,2472.62 1300.78,1336.74 "/>
     <polygon id="_338427264" class="fil1" points="1300.78,1336.74 2436.66,2472.62 2436.24,2475.59 2435.82,2478.55 2435.39,2481.51 2434.95,2484.46 2434.51,2487.41 2434.05,2490.35 2433.59,2493.29 2433.12,2496.23 2432.64,2499.16 2432.15,2502.08 2431.66,2505 2431.15,2507.92 2430.64,2510.83 2430.12,2513.74 2429.6,2516.64 2429.06,2519.54 2428.51,2522.43 2427.96,2525.32 2427.4,2528.2 2426.83,2531.08 2426.25,2533.95 2425.66,2536.82 2425.07,2539.69 2424.46,2542.55 2423.85,2545.4 2423.23,2548.25 2422.6,2551.09 2421.96,2553.93 2421.31,2556.77 2420.66,2559.6 2419.99,2562.42 2419.32,2565.24 1283.43,1429.36 1284.11,1426.54 1284.77,1423.72 1285.43,1420.89 1286.08,1418.05 1286.72,1415.21 1287.35,1412.37 1287.97,1409.52 1288.58,1406.66 1289.19,1403.81 1289.78,1400.94 1290.37,1398.07 1290.95,1395.2 1291.52,1392.32 1292.08,1389.44 1292.63,1386.55 1293.18,1383.66 1293.71,1380.76 1294.24,1377.85 1294.76,1374.95 1295.27,1372.04 1295.78,1369.12 1296.27,1366.2 1296.76,1363.27 1297.24,1360.34 1297.71,1357.41 1298.17,1354.47 1298.62,1351.53 1299.07,1348.58 1299.51,1345.62 1299.94,1342.67 1300.36,1339.71 "/>
     <polygon id="_338427720" class="fil1" points="1155.25,1407.64 2291.13,2543.52 2249.81,2553.14 1113.93,1417.26 "/>
     <polygon id="_338427648" class="fil1" points="1283.43,1429.36 2419.32,2565.24 2418.63,2568.04 2417.95,2570.84 2417.24,2573.63 2416.53,2576.42 2415.82,2579.21 2415.09,2582 2414.35,2584.79 2413.6,2587.57 2412.84,2590.35 2412.07,2593.12 2411.29,2595.9 2410.5,2598.67 2409.7,2601.44 2408.89,2604.21 2408.07,2606.97 2407.24,2609.73 2406.4,2612.49 2405.55,2615.25 2404.69,2618 2403.82,2620.75 2402.94,2623.5 2402.05,2626.25 2401.14,2628.99 2400.23,2631.73 2399.31,2634.47 2398.37,2637.21 2397.43,2639.94 2396.47,2642.67 2395.5,2645.4 2394.53,2648.12 2393.54,2650.84 2392.54,2653.56 1256.66,1517.68 1257.66,1514.96 1258.64,1512.24 1259.62,1509.51 1260.59,1506.79 1261.55,1504.06 1262.49,1501.32 1263.43,1498.59 1264.35,1495.85 1265.26,1493.11 1266.17,1490.37 1267.06,1487.62 1267.94,1484.87 1268.81,1482.12 1269.67,1479.37 1270.52,1476.61 1271.36,1473.85 1272.19,1471.09 1273.01,1468.32 1273.82,1465.56 1274.62,1462.79 1275.41,1460.02 1276.19,1457.24 1276.96,1454.46 1277.72,1451.68 1278.47,1448.9 1279.21,1446.12 1279.93,1443.33 1280.65,1440.54 1281.36,1437.75 1282.06,1434.96 1282.75,1432.16 "/>
     <polygon id="_338427312" class="fil1" points="1255.61,1518.94 2391.49,2654.82 2391.26,2654.97 2391.01,2655.1 2390.74,2655.21 2390.47,2655.3 2390.18,2655.38 2389.88,2655.43 2389.57,2655.47 2389.26,2655.48 1253.38,1519.59 1253.69,1519.58 1254,1519.55 1254.3,1519.5 1254.59,1519.42 1254.86,1519.33 1255.13,1519.22 1255.38,1519.09 "/>
     <polygon id="_338427768" class="fil1" points="1113.93,1417.26 2249.81,2553.14 2247.92,2553.58 2246.01,2554.01 2244.11,2554.44 2242.2,2554.85 2240.29,2555.27 2238.38,2555.67 2236.46,2556.07 2234.54,2556.46 2232.62,2556.85 2230.69,2557.23 2228.76,2557.6 2226.83,2557.97 2224.9,2558.33 2222.96,2558.68 2221.02,2559.02 2219.07,2559.36 2217.13,2559.69 2215.18,2560.02 2213.23,2560.34 2211.27,2560.65 2209.31,2560.95 2207.35,2561.25 2205.39,2561.54 2203.43,2561.83 2201.46,2562.1 2199.49,2562.37 2197.51,2562.64 2195.54,2562.89 2193.56,2563.14 2191.58,2563.38 2189.59,2563.62 2187.61,2563.85 1051.73,1427.97 1053.71,1427.74 1055.7,1427.5 1057.68,1427.26 1059.66,1427.01 1061.63,1426.75 1063.61,1426.49 1065.58,1426.22 1067.54,1425.94 1069.51,1425.66 1071.47,1425.37 1073.43,1425.07 1075.39,1424.77 1077.34,1424.45 1079.3,1424.14 1081.25,1423.81 1083.19,1423.48 1085.14,1423.14 1087.08,1422.79 1089.01,1422.44 1090.95,1422.08 1092.88,1421.72 1094.81,1421.35 1096.74,1420.97 1098.66,1420.58 1100.58,1420.19 1102.5,1419.79 1104.41,1419.38 1106.32,1418.97 1108.23,1418.55 1110.13,1418.13 1112.03,1417.7 "/>
     <polygon id="_338427144" class="fil1" points="1051.73,1427.97 2187.61,2563.85 2185.67,2564.06 2183.72,2564.27 2181.76,2564.48 2179.81,2564.67 2177.85,2564.86 2175.88,2565.05 2173.91,2565.22 2171.94,2565.39 2169.96,2565.55 2167.98,2565.71 2165.99,2565.86 2164,2566 2162.01,2566.14 2160.01,2566.27 2158,2566.39 2156,2566.5 2153.99,2566.61 2151.97,2566.71 2149.95,2566.81 2147.93,2566.9 2145.9,2566.98 2143.87,2567.05 2141.83,2567.12 2139.79,2567.18 2137.75,2567.23 2135.7,2567.27 2133.65,2567.31 2131.59,2567.35 2129.53,2567.37 2127.47,2567.39 2125.4,2567.4 2123.33,2567.4 987.45,1431.52 989.521,1431.52 991.588,1431.51 993.652,1431.49 995.711,1431.46 997.767,1431.43 999.819,1431.39 1001.87,1431.35 1003.91,1431.29 1005.95,1431.23 1007.99,1431.17 1010.02,1431.09 1012.05,1431.01 1014.07,1430.93 1016.09,1430.83 1018.11,1430.73 1020.12,1430.62 1022.12,1430.51 1024.13,1430.38 1026.13,1430.25 1028.12,1430.12 1030.11,1429.98 1032.1,1429.83 1034.08,1429.67 1036.06,1429.51 1038.03,1429.34 1040,1429.16 1041.97,1428.98 1043.93,1428.79 1045.88,1428.59 1047.84,1428.39 1049.78,1428.18 "/>
     <polygon id="_338427288" class="fil1" points="1129,1519.55 2264.88,2655.43 2264.65,2655.35 2264.42,2655.24 2264.2,2655.1 2263.98,2654.95 2263.77,2654.76 1127.89,1518.88 1128.1,1519.06 1128.32,1519.22 1128.54,1519.36 1128.77,1519.47 "/>
     <polygon id="_338427624" class="fil1" points="1256.71,1517.7 2392.59,2653.58 2392.5,2653.75 2392.4,2653.92 2392.28,2654.09 2392.15,2654.25 2392,2654.4 2391.85,2654.55 2391.68,2654.69 2391.49,2654.82 1255.61,1518.94 1255.8,1518.81 1255.97,1518.67 1256.12,1518.52 1256.27,1518.37 1256.4,1518.21 1256.52,1518.04 1256.62,1517.87 "/>
     <polygon id="_338427360" class="fil1" points="1253.38,1519.59 2389.26,2655.48 2265.94,2655.48 1130.06,1519.59 "/>
     <polygon id="_338427528" class="fil1" points="1130.06,1519.59 2265.94,2655.48 2265.72,2655.47 2265.52,2655.47 2265.35,2655.47 2265.21,2655.47 2265.09,2655.46 2264.99,2655.45 2264.92,2655.44 2264.88,2655.43 1129,1519.55 1129.04,1519.56 1129.11,1519.57 1129.21,1519.58 1129.33,1519.58 1129.47,1519.59 1129.64,1519.59 1129.84,1519.59 "/>
     <polygon id="_338428152" class="fil1" points="987.45,1431.52 2123.33,2567.4 2121.51,2567.4 2119.7,2567.39 2117.9,2567.38 2116.1,2567.36 2114.3,2567.34 2112.51,2567.31 2110.73,2567.28 2108.95,2567.24 2107.17,2567.19 2105.4,2567.14 2103.64,2567.09 2101.88,2567.03 2100.13,2566.97 2098.38,2566.9 2096.64,2566.83 2094.9,2566.75 2093.17,2566.66 2091.44,2566.57 2089.72,2566.48 2088.01,2566.38 2086.3,2566.28 2084.59,2566.17 2082.89,2566.05 2081.2,2565.94 2079.51,2565.81 2077.83,2565.68 2076.15,2565.55 2074.48,2565.41 2072.81,2565.27 2071.15,2565.12 2069.49,2564.96 2067.84,2564.81 931.961,1428.92 933.613,1429.08 935.268,1429.24 936.93,1429.38 938.597,1429.53 940.269,1429.67 941.948,1429.8 943.631,1429.93 945.32,1430.05 947.013,1430.17 948.713,1430.29 950.417,1430.39 952.128,1430.5 953.842,1430.6 955.563,1430.69 957.29,1430.78 959.022,1430.86 960.759,1430.94 962.501,1431.02 964.248,1431.09 966.001,1431.15 967.759,1431.21 969.523,1431.26 971.292,1431.31 973.066,1431.36 974.845,1431.39 976.631,1431.43 978.42,1431.45 980.215,1431.48 982.017,1431.5 983.822,1431.51 985.633,1431.52 "/>
     <polygon id="_338428296" class="fil1" points="931.961,1428.92 2067.84,2564.81 2066.17,2564.64 2064.5,2564.47 2062.82,2564.29 2061.15,2564.11 2059.47,2563.92 2057.79,2563.73 2056.11,2563.53 2054.43,2563.32 2052.75,2563.11 2051.07,2562.89 2049.38,2562.67 2047.7,2562.44 2046.01,2562.21 2044.33,2561.97 2042.64,2561.73 2040.95,2561.48 2039.26,2561.22 2037.57,2560.96 2035.88,2560.7 2034.19,2560.43 2032.49,2560.15 2030.8,2559.87 2029.11,2559.58 2027.41,2559.28 2025.71,2558.98 2024.02,2558.68 2022.32,2558.37 2020.62,2558.05 2018.92,2557.73 2017.22,2557.41 2015.52,2557.08 2013.82,2556.74 877.935,1420.86 879.637,1421.19 881.338,1421.53 883.039,1421.85 884.738,1422.17 886.437,1422.49 888.135,1422.8 889.833,1423.1 891.529,1423.4 893.225,1423.69 894.92,1423.98 896.613,1424.27 898.307,1424.54 899.998,1424.81 901.69,1425.08 903.381,1425.34 905.07,1425.6 906.759,1425.85 908.447,1426.09 910.133,1426.33 911.819,1426.56 913.503,1426.79 915.186,1427.01 916.869,1427.23 918.55,1427.44 920.231,1427.65 921.91,1427.85 923.589,1428.04 925.266,1428.23 926.94,1428.41 928.615,1428.59 930.289,1428.76 "/>
     <polygon id="_338428368" class="fil1" points="877.935,1420.86 2013.82,2556.74 1989.7,2551.93 853.823,1416.05 "/>
     <polygon id="_338427936" class="fil1" points="853.823,1416.05 1989.7,2551.93 1983.63,2575.78 847.746,1439.9 "/>
     <polygon id="_338428176" class="fil1" points="595.989,1236.13 1731.87,2372.01 1718.43,2371.16 582.552,1235.27 "/>
     <polygon id="_338428584" class="fil1" points="582.552,1235.27 1718.43,2371.16 1716.32,2371.02 1714.23,2370.87 1712.18,2370.72 1710.16,2370.57 1708.17,2370.4 1706.22,2370.23 1704.3,2370.05 1702.41,2369.87 1700.57,2369.68 1698.75,2369.48 1696.98,2369.28 1695.24,2369.07 1693.55,2368.85 1691.89,2368.62 1690.28,2368.39 1688.7,2368.15 552.82,1232.26 554.395,1232.5 556.01,1232.74 557.666,1232.96 559.363,1233.18 561.098,1233.39 562.872,1233.6 564.684,1233.8 566.533,1233.99 568.418,1234.17 570.337,1234.35 572.292,1234.52 574.28,1234.68 576.3,1234.84 578.353,1234.99 580.438,1235.14 "/>
     <polygon id="_338428032" class="fil1" points="534.4,1227.9 1670.28,2363.79 1667.97,2362.85 1665.72,2361.82 1663.51,2360.71 1661.35,2359.51 1659.24,2358.24 1657.18,2356.89 1655.16,2355.46 1653.19,2353.96 1651.27,2352.39 1649.39,2350.75 513.507,1214.86 515.385,1216.51 517.309,1218.08 519.278,1219.58 521.294,1221.01 523.357,1222.36 525.468,1223.63 527.627,1224.83 529.836,1225.94 532.093,1226.96 "/>
     <polygon id="_338428536" class="fil1" points="822.7,1518.94 1958.58,2654.82 1958.34,2654.97 1958.09,2655.1 1957.83,2655.21 1957.55,2655.31 1957.25,2655.38 1956.95,2655.43 1956.63,2655.47 1956.3,2655.48 820.421,1519.59 820.747,1519.58 821.064,1519.55 821.37,1519.5 821.664,1519.42 821.945,1519.33 822.212,1519.22 822.464,1519.09 "/>
     <polygon id="_338428056" class="fil1" points="820.421,1519.59 1956.3,2655.48 1833.05,2655.48 697.165,1519.59 "/>
     <polygon id="_338428320" class="fil1" points="697.165,1519.59 1833.05,2655.48 1832.88,2655.47 1832.72,2655.47 1832.57,2655.46 1832.43,2655.45 1832.31,2655.43 1832.19,2655.41 1832.08,2655.39 1831.98,2655.36 696.103,1519.48 696.2,1519.51 696.308,1519.53 696.426,1519.55 696.553,1519.56 696.691,1519.58 696.839,1519.59 696.997,1519.59 "/>
     <polygon id="_338429256" class="fil1" points="696.103,1519.48 1831.98,2655.36 1831.71,2655.27 1831.45,2655.15 1831.2,2655.02 1830.96,2654.87 1830.74,2654.7 694.857,1518.82 695.079,1518.99 695.315,1519.14 695.566,1519.27 695.828,1519.39 "/>
     <polygon id="_338428680" class="fil1" points="729.867,1366.85 1865.75,2502.73 1850.69,2493.27 714.811,1357.39 "/>
     <polygon id="_338428800" class="fil1" points="714.811,1357.39 1850.69,2493.27 1848.45,2491.86 1846.23,2490.43 1844.02,2488.99 1841.83,2487.54 1839.64,2486.08 1837.47,2484.61 1835.32,2483.13 1833.18,2481.63 1831.05,2480.13 1828.94,2478.61 1826.84,2477.09 1824.76,2475.55 1822.69,2474 1820.64,2472.45 1818.6,2470.88 1816.57,2469.3 1814.56,2467.71 1812.57,2466.11 1810.59,2464.5 1808.62,2462.88 1806.67,2461.25 1804.74,2459.61 1802.82,2457.96 1800.92,2456.3 1799.03,2454.63 663.145,1318.75 665.034,1320.42 666.938,1322.08 668.858,1323.73 670.792,1325.37 672.742,1327 674.708,1328.62 676.688,1330.23 678.683,1331.83 680.693,1333.42 682.718,1335 684.758,1336.56 686.812,1338.12 688.881,1339.67 690.963,1341.21 693.061,1342.73 695.173,1344.25 697.299,1345.75 699.439,1347.24 701.593,1348.73 703.762,1350.2 705.944,1351.66 708.14,1353.11 710.35,1354.55 712.574,1355.97 "/>
     <polygon id="_338429160" class="fil1" points="464.051,1069.88 1599.93,2205.76 1599.88,2205.76 463.999,1069.88 "/>
     <polygon id="_338428656" class="fil1" points="552.82,1232.26 1688.7,2368.15 1687.29,2367.92 1685.91,2367.68 1684.57,2367.45 1683.26,2367.2 1681.98,2366.95 1680.74,2366.69 1679.53,2366.43 1678.36,2366.16 1677.23,2365.89 1676.14,2365.61 1675.08,2365.32 1674.06,2365.03 1673.08,2364.73 1672.14,2364.42 1671.24,2364.11 1670.38,2363.79 534.501,1227.9 535.359,1228.22 536.259,1228.54 537.198,1228.84 538.177,1229.14 539.196,1229.44 540.254,1229.72 541.349,1230.01 542.482,1230.28 543.652,1230.55 544.858,1230.81 546.1,1231.07 547.376,1231.32 548.687,1231.56 550.033,1231.8 551.41,1232.03 "/>
     <polygon id="_338428872" class="fil1" points="534.501,1227.9 1670.38,2363.79 1670.28,2363.79 534.4,1227.9 "/>
     <polygon id="_338428944" class="fil1" points="836.579,1479.8 1972.46,2615.68 1972.1,2616.84 1971.74,2618 1971.37,2619.16 1971.01,2620.32 1970.64,2621.48 1970.26,2622.65 1969.89,2623.82 1969.51,2624.98 1969.13,2626.15 1968.75,2627.33 1968.36,2628.5 1967.97,2629.68 1967.58,2630.85 1967.18,2632.03 1966.78,2633.21 1966.38,2634.4 1965.98,2635.58 1965.57,2636.77 1965.16,2637.96 1964.75,2639.15 1964.34,2640.34 1963.92,2641.53 1963.5,2642.73 1963.07,2643.92 1962.65,2645.12 1962.22,2646.32 1961.79,2647.52 1961.35,2648.73 1960.91,2649.94 1960.47,2651.14 1960.03,2652.35 1959.58,2653.56 823.701,1517.68 824.148,1516.47 824.592,1515.26 825.033,1514.05 825.47,1512.85 825.905,1511.64 826.338,1510.44 826.766,1509.24 827.193,1508.04 827.617,1506.84 828.037,1505.65 828.455,1504.46 828.87,1503.26 829.282,1502.07 829.692,1500.89 830.098,1499.7 830.501,1498.51 830.903,1497.33 831.301,1496.15 831.696,1494.97 832.088,1493.79 832.478,1492.62 832.864,1491.44 833.248,1490.27 833.63,1489.1 834.008,1487.93 834.383,1486.77 834.757,1485.6 835.126,1484.44 835.494,1483.28 835.859,1482.12 836.22,1480.96 "/>
     <polygon id="_338429064" class="fil1" points="823.701,1517.68 1959.58,2653.56 1959.5,2653.75 1959.41,2653.93 1959.3,2654.11 1959.18,2654.27 1959.05,2654.42 1958.9,2654.57 1958.75,2654.7 1958.58,2654.82 822.7,1518.94 822.865,1518.82 823.021,1518.69 823.166,1518.54 823.3,1518.39 823.421,1518.22 823.529,1518.05 823.622,1517.87 "/>
     <polygon id="_338429136" class="fil1" points="847.746,1439.9 1983.63,2575.78 1983.29,2577.11 1982.95,2578.43 1982.61,2579.75 1982.27,2581.06 1981.93,2582.37 1981.58,2583.67 1981.24,2584.97 1980.9,2586.26 1980.55,2587.55 1980.21,2588.83 1979.86,2590.11 1979.52,2591.38 1979.17,2592.64 1978.82,2593.9 1978.47,2595.16 1978.12,2596.41 1977.78,2597.65 1977.43,2598.89 1977.08,2600.13 1976.72,2601.36 1976.37,2602.58 1976.02,2603.8 1975.67,2605.01 1975.31,2606.22 1974.96,2607.42 1974.6,2608.62 1974.25,2609.81 1973.89,2611 1973.53,2612.18 1973.18,2613.35 1972.82,2614.52 1972.46,2615.68 836.579,1479.8 836.938,1478.64 837.296,1477.47 837.654,1476.29 838.01,1475.11 838.367,1473.93 838.723,1472.74 839.077,1471.54 839.431,1470.34 839.786,1469.13 840.139,1467.92 840.491,1466.7 840.843,1465.48 841.195,1464.25 841.544,1463.01 841.895,1461.77 842.244,1460.53 842.593,1459.28 842.94,1458.02 843.289,1456.76 843.635,1455.49 843.981,1454.22 844.327,1452.95 844.672,1451.67 845.016,1450.38 845.359,1449.09 845.702,1447.79 846.044,1446.49 846.386,1445.18 846.727,1443.87 847.067,1442.55 847.407,1441.23 "/>
     <polygon id="_338429472" class="fil1" points="1384,1225.94 2519.89,2361.83 2518.24,2365.09 2516.56,2368.34 2514.82,2371.58 2513.04,2374.79 2511.21,2377.99 2509.33,2381.17 2507.41,2384.33 2505.44,2387.47 2503.43,2390.6 2501.37,2393.7 2499.26,2396.79 2497.11,2399.85 2494.92,2402.9 2492.68,2405.93 2490.4,2408.93 2488.08,2411.92 2485.71,2414.88 2483.3,2417.83 2480.85,2420.75 2478.36,2423.65 2475.82,2426.53 2473.24,2429.39 2470.62,2432.23 2467.97,2435.04 2465.27,2437.83 2462.53,2440.6 2459.75,2443.34 2456.93,2446.07 2454.07,2448.76 2451.18,2451.44 2448.24,2454.09 2445.27,2456.72 1309.39,1320.83 1312.36,1318.21 1315.3,1315.56 1318.19,1312.88 1321.05,1310.18 1323.87,1307.46 1326.65,1304.72 1329.39,1301.95 1332.08,1299.16 1334.74,1296.34 1337.36,1293.51 1339.94,1290.65 1342.48,1287.77 1344.97,1284.87 1347.42,1281.94 1349.83,1279 1352.2,1276.04 1354.52,1273.05 1356.8,1270.04 1359.04,1267.02 1361.23,1263.97 1363.38,1260.9 1365.49,1257.82 1367.55,1254.71 1369.56,1251.59 1371.53,1248.45 1373.45,1245.29 1375.33,1242.11 1377.16,1238.91 1378.94,1235.69 1380.68,1232.46 1382.36,1229.21 "/>
    </g>
    <path id="_341211832" class="fil1" d="M988.909 528.407c39.43,0 75.1276,15.9839 100.968,41.8229 25.839,25.8402 41.8229,61.5378 41.8229,100.969 0,39.4288 -15.9839,75.1276 -41.8229,100.968 -17.9339,17.9339 -40.6158,31.1197 -65.9989,37.5095 92.2997,6.95315 193.593,39.8327 269.608,97.1564 36.9721,27.8823 67.8189,61.6205 88.3383,100.997 22.2106,0.400394 40.6111,-22.4185 60.1619,-46.6654 29.8843,-37.0642 61.663,-76.4753 117.709,-76.4753 13.4232,0 24.3059,10.8827 24.3059,24.3059 0,13.4232 -10.8827,24.3059 -24.3059,24.3059 -32.9587,0 -57.1619,30.0154 -79.9217,58.2437 -24.0343,29.8063 -46.9134,58.18 -78.9532,64.7245 5.44134,20.0646 8.36575,41.2973 8.36575,63.6792 0,37.3063 -8.90906,73.0158 -25.1823,105.996 -17.2382,34.9406 -42.7052,67.0075 -74.6162,94.8898l-8.61024 15.9059c-4.38544,31.6607 -10.0973,62.5749 -17.3433,92.6198 -7.20591,29.8713 -16.0571,59.3304 -26.778,88.3205l0.0531496 0.0188977c-0.209055,0.468898 -0.597638,0.897638 -1.09606,1.24016 -0.609449,0.416929 -1.38662,0.654331 -2.23583,0.654331l-123.314 0c-0.629528,0 -0.976772,-0.0153543 -1.06772,-0.0425197 -0.612993,-0.186614 -1.21063,-0.668504 -1.70788,-1.33347 -0.401575,-0.539764 -0.636615,-1.17874 -0.636615,-1.82244 0,-0.504331 0.0141732,-0.825591 0.0425197,-0.920079l0.101575 -0.20315c3.77835,-12.7169 6.913,-23.7189 9.52087,-33.3355 2.72481,-10.0453 5.6126,-21.2008 8.61497,-33.1725l10.3158 -41.1272 -41.3138 9.62127c-20.2323,4.71024 -41.0079,8.31024 -62.2052,10.7079 -20.7071,2.34213 -42.1642,3.55394 -64.278,3.55394 -19.4032,0 -37.9087,-0.882284 -55.4882,-2.59606 -17.8311,-1.73622 -35.8701,-4.44567 -54.026,-8.06694l-24.1122 -4.80827 -6.07678 23.8536c-3.61299,14.1839 -7.33701,27.5185 -11.1673,39.9 -3.81378,12.3225 -8.10001,24.952 -12.8776,37.878 -0.188977,0.51378 -0.548032,0.950788 -1.00158,1.26142 -0.605906,0.414567 -1.39725,0.651969 -2.27835,0.651969l-123.256 0c-0.461811,0 -0.816142,-0.0401575 -1.06181,-0.113386 -0.747638,-0.225591 -1.37835,-0.676772 -1.81299,-1.25669 -0.366142,-0.488977 -0.581103,-1.1563 -0.581103,-1.91693 0,-0.355512 0.0377953,-0.673229 0.114567,-0.933072 6.49489,-21.6851 12.4772,-43.6536 17.9835,-65.8666 5.24174,-21.1406 10.0807,-42.8906 14.5512,-65.1709l3.50906 -17.4874 -15.0567 -9.45946c-23.9351,-15.0378 -45.5622,-32.0197 -64.4493,-50.602 -18.5646,-18.2646 -34.4835,-38.0941 -47.3469,-59.1532l-7.0252 -11.5039 -13.4374 -0.855119c-11.3575,-0.721654 -21.4488,-1.70551 -29.7319,-3.01181 -7.60631,-1.19764 -13.8543,-2.63622 -18.3189,-4.35945l-0.101575 0c-24.8764,-9.55985 -41.1508,-34.2485 -51.7973,-62.4107 -11.8193,-31.2614 -16.6288,-66.678 -18.5516,-93.0851l0 -2.53229 -0.0519685 0c0.296457,-3.08859 1.67599,-5.91851 3.78189,-8.08583 2.28898,-2.35748 5.45433,-3.91181 9.04016,-4.15748 16.4504,-1.10787 32.1213,-3.58701 47.1544,-7.30276 14.9835,-3.70394 29.2666,-8.63977 42.9992,-14.6728l10.526 -4.6252 3.6567 -10.976c9.8067,-29.4307 24.5776,-56.9091 44.6067,-81.7005 19.2969,-23.8866 43.4965,-45.228 72.8646,-63.3626l25.65 -15.8374 -19.5721 -22.9606c-15.3803,-18.0425 -29.1012,-39.7075 -39.5256,-61.7953 -5.20748,-11.0339 -9.54568,-22.0689 -12.7996,-32.6859 31.2248,1.01457 62.0646,6.54567 90.8953,14.6221 50.0941,14.0327 93.7347,35.5276 123.031,54.4961l17.3244 3.95197c15.5776,-2.01969 32.1614,-3.64961 49.9016,-4.81063 5.8252,-0.380315 11.7839,-0.700394 17.8831,-0.956694 -24.3638,-6.61182 -46.1386,-19.5118 -63.476,-36.8492 -25.8402,-25.8402 -41.8229,-61.539 -41.8229,-100.968 0,-39.4311 15.9827,-75.1288 41.8229,-100.969 25.8402,-25.839 61.5378,-41.8229 100.969,-41.8229z"/>
   </g>
  </g>
  <path class="fil2" d="M1024 0c565.539,0 1024,458.461 1024,1024 0,565.539 -458.461,1024 -1024,1024 -565.539,0 -1024,-458.461 -1024,-1024 0,-565.539 458.461,-1024 1024,-1024z"/>
  <path class="fil3" d="M1369.11 1005.1c-12.3744,-5.03386 -26.4874,0.917717 -31.5201,13.2921 -5.03386,12.3744 0.917717,26.4862 13.2921,31.5201 61.5603,25.141 94.0123,-15.1028 128.896,-58.3654 22.7599,-28.2272 46.963,-58.2437 79.9217,-58.2437 13.4232,0 24.3059,-10.8827 24.3059,-24.3059 0,-13.4232 -10.8827,-24.3059 -24.3059,-24.3059 -56.0457,0 -87.8245,39.4111 -117.709,76.4741 -23.1591,28.7233 -44.7048,55.441 -72.8812,43.9347z"/>
  <path class="fil4" d="M883.632 814.783c15.5776,-2.01969 32.1614,-3.64961 49.9016,-4.81063 16.8095,-1.09843 34.7315,-1.69134 53.9162,-1.69134 101.212,0 219.867,33.5693 306.037,98.5513 68.3032,51.5103 115.7,123.005 115.7,213.116 0,37.3063 -8.90906,73.0158 -25.1823,105.996 -17.2382,34.9406 -42.7052,67.0075 -74.6162,94.8898l-8.61024 15.9059c-4.38544,31.6607 -10.0973,62.5749 -17.3433,92.6198 -7.20591,29.8713 -16.0571,59.3304 -26.778,88.3205l0.0531496 0.0188977c-0.209055,0.468898 -0.597638,0.897638 -1.09606,1.24016 -0.609449,0.416929 -1.38662,0.654331 -2.23583,0.654331l-123.314 0c-0.629528,0 -0.976772,-0.0153543 -1.06772,-0.0425197 -0.612993,-0.186614 -1.21063,-0.668504 -1.70788,-1.33347 -0.401575,-0.539764 -0.636615,-1.17874 -0.636615,-1.82244 0,-0.504331 0.0141732,-0.825591 0.0425197,-0.920079l0.101575 -0.20315c3.77835,-12.7169 6.913,-23.7189 9.52087,-33.3355 2.72481,-10.0453 5.6126,-21.2008 8.61497,-33.1725l10.3158 -41.1272 -41.3138 9.62127c-20.2323,4.71024 -41.0079,8.31024 -62.2052,10.7079 -20.7071,2.34213 -42.1642,3.55394 -64.278,3.55394 -19.4032,0 -37.9087,-0.882284 -55.4882,-2.59606 -17.8311,-1.73622 -35.8701,-4.44567 -54.026,-8.06694l-24.1122 -4.80827 -6.07678 23.8536c-3.61299,14.1839 -7.33701,27.5185 -11.1673,39.9 -3.81378,12.3225 -8.10001,24.952 -12.8776,37.878 -0.188977,0.51378 -0.548032,0.950788 -1.00158,1.26142 -0.605906,0.414567 -1.39725,0.651969 -2.27835,0.651969l-123.256 0c-0.461811,0 -0.816142,-0.0401575 -1.06181,-0.113386 -0.747638,-0.225591 -1.37835,-0.676772 -1.81299,-1.25669 -0.366142,-0.488977 -0.581103,-1.1563 -0.581103,-1.91693 0,-0.355512 0.0377953,-0.673229 0.114567,-0.933072 6.49489,-21.6851 12.4772,-43.6536 17.9835,-65.8666 5.24174,-21.1406 10.0807,-42.8906 14.5512,-65.1709l3.50906 -17.4874 -15.0567 -9.45946c-23.9351,-15.0378 -45.5622,-32.0197 -64.4493,-50.602 -18.5646,-18.2646 -34.4835,-38.0941 -47.3469,-59.1532l-7.0252 -11.5039 -13.4374 -0.855119c-11.3575,-0.721654 -21.4488,-1.70551 -29.7319,-3.01181 -7.60631,-1.19764 -13.8543,-2.63622 -18.3189,-4.35945l-0.101575 0c-24.8764,-9.55985 -41.1508,-34.2485 -51.7973,-62.4107 -11.8193,-31.2614 -16.6288,-66.678 -18.5516,-93.0851l0 -2.53229 -0.0519685 0c0.296457,-3.08859 1.67599,-5.91851 3.78189,-8.08583 2.28898,-2.35748 5.45433,-3.91181 9.04016,-4.15748 16.4504,-1.10787 32.1213,-3.58701 47.1544,-7.30276 14.9835,-3.70394 29.2666,-8.63977 42.9992,-14.6728l10.526 -4.6252 3.6567 -10.976c9.8067,-29.4307 24.5776,-56.9091 44.6067,-81.7005 19.2969,-23.8866 43.4965,-45.228 72.8646,-63.3626l25.65 -15.8374 -19.5721 -22.9606c-15.3803,-18.0425 -29.1012,-39.7075 -39.5256,-61.7953 -5.20748,-11.0339 -9.54568,-22.0689 -12.7996,-32.6859 31.2248,1.01457 62.0646,6.54567 90.8953,14.6221 50.0941,14.0327 93.7347,35.5276 123.031,54.4961l17.3244 3.95197z"/>
  <path class="fil5" d="M988.909 528.407c39.43,0 75.1276,15.9839 100.968,41.8229 25.839,25.8402 41.8229,61.5378 41.8229,100.969 0,39.4288 -15.9839,75.1276 -41.8229,100.968 -25.8402,25.8402 -61.5378,41.8229 -100.968,41.8229 -39.4311,0 -75.1288,-15.9827 -100.969,-41.8229 -25.8402,-25.8402 -41.8229,-61.539 -41.8229,-100.968 0,-39.4311 15.9827,-75.1288 41.8229,-100.969 25.8402,-25.839 61.5378,-41.8229 100.969,-41.8229z"/>
  <path class="fil6" d="M1028.96 646.986c-7.42796,2.5063 -15.476,-1.52835 -17.9835,-8.98111 -1.8378,-5.45433 -8.70591,-11.8358 -22.0689,-11.8358 -10.3795,0 -16.5177,6.72638 -17.1851,13.389 -0.861024,8.26536 6.66378,14.8925 20.0988,17.7095 32.1721,6.72402 44.5666,29.2229 42.5504,48.4843 -1.80473,17.5217 -14.4024,31.5792 -31.2331,36.7134l0 8.67875c0,7.84489 -6.38504,14.2358 -14.2311,14.2358 -7.84607,0 -14.1969,-6.39095 -14.1969,-14.2358l0 -8.2252c-19.5059,-4.51181 -30.8859,-17.7354 -34.813,-29.5358 -2.49803,-7.42678 1.5248,-15.5114 8.95631,-17.9717 7.46221,-2.5063 15.5126,1.5189 18.0177,8.94568 1.93701,5.89843 9.54331,11.8335 22.0358,11.8335 10.376,0 16.5154,-6.69804 17.1827,-13.363 0.862205,-8.2878 -6.6626,-14.9173 -20.0977,-17.7331 -32.1721,-6.72756 -44.5701,-29.1874 -42.5504,-48.4489 1.80236,-17.5228 14.4036,-31.5792 31.2296,-36.75l0 -8.68111c0,-7.84489 6.38977,-14.1969 14.2358,-14.1969 7.84607,0 14.2311,6.35197 14.2311,14.1969l0 8.263c19.4681,4.50591 30.8516,17.7366 34.7776,29.4981 2.49567,7.46457 -1.52835,15.515 -8.95631,18.0106z"/>
  <path class="fil7" d="M896.674 887.544c-13.4232,0 -24.3059,10.8827 -24.3059,24.3059 0,13.4221 10.8827,24.3059 24.3059,24.3059l218.746 0c13.4232,0 24.3047,-10.8839 24.3047,-24.3059 0,-13.4232 -10.8815,-24.3059 -24.3047,-24.3059l-218.746 0z"/>
  <path class="fil7" d="M711.495 1017.17c-14.8902,0 -26.9292,-12.0508 -26.9292,-26.9292 0,-14.8949 12.039,-26.9351 26.9292,-26.9351 14.8831,0 26.9339,12.0402 26.9339,26.9351 0,14.8784 -12.1075,26.9292 -26.9339,26.9292z"/>
  <line class="fil8" x1="464.051" y1="1072.41" x2="464.051" y2= "1072.41" />
 </g>
</svg>
