<?xml version="1.0" encoding="UTF-8"?>
<!DOCTYPE svg PUBLIC "-//W3C//DTD SVG 1.1//EN" "http://www.w3.org/Graphics/SVG/1.1/DTD/svg11.dtd">
<!-- Creator: CorelDRAW -->
<svg xmlns="http://www.w3.org/2000/svg" xml:space="preserve" width="2048px" height="2048px" style="shape-rendering:geometricPrecision; text-rendering:geometricPrecision; image-rendering:optimizeQuality; fill-rule:evenodd; clip-rule:evenodd"
viewBox="0 0 2048 2048"
 xmlns:xlink="http://www.w3.org/1999/xlink">
 <defs>
  <style type="text/css">
   <![CDATA[
    .fil2 {fill:none}
    .fil3 {fill:#33691E}
    .fil4 {fill:#689F38}
    .fil1 {fill:#959595}
    .fil0 {fill:#BDBDBD}
    .fil5 {fill:#E6EE9C;fill-rule:nonzero}
   ]]>
  </style>
   <clipPath id="id0">
    <path d="M1024 0c565.539,0 1024,458.461 1024,1024 0,565.539 -458.461,1024 -1024,1024 -565.539,0 -1024,-458.461 -1024,-1024 0,-565.539 458.461,-1024 1024,-1024z"/>
   </clipPath>
 </defs>
 <g id="Layer_x0020_1">
  <metadata id="CorelCorpID_0Corel-Layer"/>
  <path class="fil0" d="M1024 0c565.539,0 1024,458.461 1024,1024 0,565.539 -458.461,1024 -1024,1024 -565.539,0 -1024,-458.461 -1024,-1024 0,-565.539 458.461,-1024 1024,-1024z"/>
  <g style="clip-path:url(#id0)">
   <g id="_341208976">
    <g>
     <polygon id="_3329287921" class="fil1" points="1572.16,740.359 2708.05,1876.24 2709.58,1878.2 2711.03,1880.22 2712.37,1882.32 2713.62,1884.49 2714.77,1886.72 2715.8,1889.01 2716.73,1891.36 2717.55,1893.76 2718.25,1896.21 2718.83,1898.71 2719.28,1901.26 2719.61,1903.84 2719.81,1906.46 2719.88,1909.12 1584,773.236 1583.93,770.58 1583.73,767.958 1583.4,765.374 1582.95,762.83 1582.37,760.331 1581.67,757.877 1580.85,755.476 1579.92,753.128 1578.88,750.837 1577.74,748.607 1576.49,746.441 1575.15,744.342 1573.7,742.314 "/>
     <polygon id="_332929176" class="fil1" points="1584,773.236 2719.88,1909.12 2719.88,2410.65 1584,1274.76 "/>
     <polygon id="_332929872" class="fil1" points="1584,1274.76 2719.88,2410.65 2719.81,2413.3 2719.61,2415.92 2719.28,2418.51 2718.83,2421.05 2718.25,2423.55 2717.55,2426 2716.73,2428.41 2715.8,2430.75 2714.77,2433.04 2713.62,2435.27 2712.37,2437.44 2711.03,2439.54 2709.58,2441.57 2708.05,2443.52 2706.42,2445.4 2704.7,2447.2 1568.82,1311.32 1570.54,1309.52 1572.16,1307.64 1573.7,1305.69 1575.15,1303.66 1576.49,1301.56 1577.74,1299.39 1578.88,1297.16 1579.92,1294.87 1580.85,1292.52 1581.67,1290.12 1582.37,1287.67 1582.95,1285.17 1583.4,1282.63 1583.73,1280.04 1583.93,1277.42 "/>
     <polygon id="_332929848" class="fil1" points="1568.82,1311.32 2704.7,2447.2 2702.91,2448.91 2701.03,2450.54 2699.07,2452.08 2697.05,2453.52 2694.95,2454.87 2692.78,2456.11 2690.55,2457.26 2688.26,2458.3 2685.91,2459.23 2683.51,2460.04 2681.06,2460.74 2678.56,2461.32 2676.01,2461.78 2673.43,2462.11 2670.81,2462.31 2668.15,2462.37 1532.27,1326.49 1534.93,1326.43 1537.55,1326.22 1540.13,1325.89 1542.68,1325.44 1545.18,1324.86 1547.63,1324.16 1550.03,1323.34 1552.38,1322.42 1554.67,1321.38 1556.9,1320.23 1559.07,1318.98 1561.16,1317.64 1563.19,1316.19 1565.15,1314.66 1567.03,1313.03 "/>
     <polygon id="_332929704" class="fil1" points="1532.27,1326.49 2668.15,2462.37 1651.61,2462.37 515.729,1326.49 "/>
     <polygon id="_332929920" class="fil1" points="515.729,1326.49 1651.61,2462.37 1648.95,2462.31 1646.33,2462.11 1643.75,2461.78 1641.2,2461.32 1638.7,2460.74 1636.25,2460.04 1633.85,2459.23 1631.5,2458.3 1629.21,2457.26 1626.98,2456.11 1624.82,2454.87 1622.72,2453.52 1620.69,2452.08 1618.73,2450.54 482.852,1314.66 484.806,1316.19 486.835,1317.64 488.934,1318.98 491.1,1320.23 493.33,1321.38 495.62,1322.42 497.968,1323.34 500.371,1324.16 502.823,1324.86 505.323,1325.44 507.867,1325.89 510.452,1326.22 513.072,1326.43 "/>
    </g>
    <path id="_341209048" class="fil1" d="M515.729 721.508l1016.54 0c14.2488,0 27.1878,5.81339 36.5516,15.1772 9.36497,9.36261 15.1772,22.3016 15.1772,36.5516l0 501.527c0,14.2488 -5.81221,27.1878 -15.1772,36.5516 -9.36379,9.36379 -22.3028,15.1772 -36.5516,15.1772l-1016.54 0c-14.2488,0 -27.1878,-5.81339 -36.5516,-15.1772 -9.36497,-9.36379 -15.1772,-22.3028 -15.1772,-36.5516l0 -501.527c0,-14.25 5.81221,-27.189 15.1772,-36.5516 9.36379,-9.36379 22.3004,-15.1772 36.5516,-15.1772z"/>
   </g>
  </g>
  <path class="fil2" d="M1024 0c565.539,0 1024,458.461 1024,1024 0,565.539 -458.461,1024 -1024,1024 -565.539,0 -1024,-458.461 -1024,-1024 0,-565.539 458.461,-1024 1024,-1024z"/>
  <path class="fil3" d="M515.729 721.508l1016.54 0c14.2488,0 27.1878,5.81339 36.5516,15.1772 9.36497,9.36261 15.1772,22.3016 15.1772,36.5516l0 501.527c0,14.2488 -5.81221,27.1878 -15.1772,36.5516 -9.36379,9.36379 -22.3028,15.1772 -36.5516,15.1772l-1016.54 0c-14.2488,0 -27.1878,-5.81339 -36.5516,-15.1772 -9.36497,-9.36379 -15.1772,-22.3028 -15.1772,-36.5516l0 -501.527c0,-14.25 5.81221,-27.189 15.1772,-36.5516 9.36379,-9.36379 22.3004,-15.1772 36.5516,-15.1772z"/>
  <path class="fil4" d="M515.729 738.732c-9.1878,0 -17.8819,3.64252 -24.3732,10.1339 -6.49016,6.49016 -10.1315,15.1843 -10.1315,24.3709l0 501.527c0,9.18662 3.64134,17.8807 10.1315,24.3721 6.49134,6.49134 15.1866,10.1327 24.3732,10.1327l1016.54 0c9.18662,0 17.8819,-3.64134 24.3732,-10.1327 6.49016,-6.49134 10.1315,-15.1854 10.1315,-24.3721l0 -501.527c0,-9.18662 -3.64134,-17.8807 -10.1315,-24.3709 -6.49134,-6.49134 -15.1866,-10.1339 -24.3732,-10.1339l-1016.54 0z"/>
  <path class="fil3" d="M504.775 751.442l114.885 0c0.687402,2.18032 1.30748,4.39489 1.85669,6.64134 1.89331,7.74922 2.89843,16.1162 2.89843,25.0051 0,28.8827 -11.7047,55.03 -30.6284,73.9536 -18.9213,18.9213 -45.0709,30.6284 -73.9536,30.6284 -7.5756,0 -14.5536,-0.673229 -20.8984,-1.95236l-0.869292 -0.178347 0 -127.389c0,-1.81181 0.766536,-3.48425 1.99488,-4.71496 1.22953,-1.22953 2.90197,-1.9937 4.71496,-1.9937z"/>
  <path class="fil3" d="M504.775 1302.11l114.885 0c0.687402,-2.1815 1.30748,-4.39607 1.85669,-6.64252 1.89331,-7.74922 2.89843,-16.1162 2.89843,-25.0051 0,-28.8827 -11.7047,-55.03 -30.6284,-73.9536 -18.9213,-18.9213 -45.0709,-30.6284 -73.9536,-30.6284 -7.5756,0 -14.5536,0.673229 -20.8984,1.95236l-0.869292 0.178347 0 127.389c0,1.81181 0.766536,3.48544 1.99488,4.71496 1.22953,1.22953 2.90197,1.99488 4.71496,1.99488z"/>
  <path class="fil3" d="M1543.22 1302.11l-114.884 0c-0.687402,-2.1815 -1.30748,-4.39607 -1.85669,-6.64252 -1.89331,-7.74922 -2.89961,-16.1162 -2.89961,-25.0051 0,-28.8827 11.7059,-55.03 30.6296,-73.9536 18.9213,-18.9213 45.0709,-30.6284 73.9536,-30.6284 7.57442,0 14.5536,0.673229 20.8984,1.95236l0.868111 0.178347 0 127.389c0,1.81181 -0.765355,3.48544 -1.9937,4.71496 -1.23071,1.22953 -2.90315,1.99488 -4.71615,1.99488z"/>
  <path class="fil3" d="M1543.22 751.442l-114.884 0c-0.687402,2.18032 -1.30748,4.39489 -1.85551,6.64016 -1.89331,7.7504 -2.90079,16.1173 -2.90079,25.0063 0,28.8827 11.7059,55.03 30.6296,73.9536 18.9213,18.9213 45.0709,30.6284 73.9536,30.6284 7.57442,0 14.5536,-0.673229 20.8984,-1.95236l0.868111 -0.178347 0 -127.389c0,-1.81181 -0.764174,-3.48425 -1.9937,-4.71496 -1.23071,-1.22953 -2.90315,-1.9937 -4.71615,-1.9937z"/>
  <path class="fil3" d="M1024 773.507c69.169,0 131.792,28.0382 177.124,73.369 45.3307,45.3319 73.369,107.955 73.369,177.124 0,69.169 -28.0382,131.792 -73.369,177.124 -45.3319,45.3307 -107.955,73.369 -177.124,73.369 -69.169,0 -131.792,-28.0382 -177.124,-73.369 -45.3307,-45.3319 -73.369,-107.955 -73.369,-177.124 0,-69.169 28.0382,-131.792 73.369,-177.124 45.3319,-45.3307 107.955,-73.369 177.124,-73.369z"/>
  <path class="fil5" d="M1022.05 1176.44l0 -30.2705c-15.1654,-1.89567 -27.4571,-5.28426 -36.9343,-10.1669 -9.47717,-4.88268 -17.6917,-12.8091 -24.5847,-23.6646 -6.89292,-10.9146 -10.9134,-24.1831 -12.0047,-39.8634l30.4429 -5.74489c2.35512,16.2555 6.49134,28.2036 12.4654,35.8429 8.5004,10.7988 18.724,16.7728 30.6154,17.9788l0 -96.3839c-12.4654,-2.3563 -25.1599,-7.17993 -38.1981,-14.4756 -9.64961,-5.39882 -17.0599,-12.8669 -22.2874,-22.4008 -5.22638,-9.53623 -7.81182,-20.3339 -7.81182,-32.4544 0,-21.5398 7.64056,-39.0012 22.8614,-52.3276 10.2248,-9.01772 25.389,-14.4744 45.4359,-16.4858l0 -14.4744 17.863 0 0 14.4744c17.576,1.66654 31.5922,6.83623 41.8748,15.4524 13.2673,10.9701 21.1949,26.0776 23.8937,45.2622l-31.304 4.71024c-1.7811,-11.8902 -5.51457,-21.0236 -11.2004,-27.3414 -5.63032,-6.3189 -13.3843,-10.5118 -23.2642,-12.5221l0 87.3083c15.2221,3.84922 25.3311,6.83623 30.2717,8.96103 9.4193,4.13504 17.1165,9.19016 23.0327,15.1075 5.97402,5.97284 10.5685,13.0382 13.728,21.1949 3.21733,8.21339 4.82481,17.0587 4.82481,26.5949 0,21.0225 -6.72048,38.4839 -20.0457,52.4989 -13.3264,14.074 -30.6166,21.541 -51.8115,22.5744l0 30.6154 -17.863 0zm0 -265.199c-11.7768,1.77992 -21.0815,6.49016 -27.8587,14.1295 -6.77835,7.63938 -10.1669,16.6571 -10.1669,27.1122 0,10.2815 2.87126,18.9543 8.67284,25.9051 5.80158,6.94961 15.5669,12.5221 29.3528,16.6571l0 -83.804zm17.863 209.31c11.7756,-1.43622 21.4831,-6.54804 29.1792,-15.2788 7.69725,-8.73072 11.5453,-19.5874 11.5453,-32.5122 0,-10.9701 -2.7567,-19.8154 -8.15552,-26.4792 -5.4567,-6.6626 -16.3134,-12.6366 -32.5689,-17.9209l0 92.191z"/>
 </g>
</svg>
