<svg xmlns="http://www.w3.org/2000/svg" viewBox="0 0 512 512"><defs><style>.cls-1{fill:#3586cb;}.cls-2{fill:#32314b;}.cls-3{fill:#fff;}.cls-4{fill:#fc4581;}.cls-5{fill:#41c0e3;}.cls-6{fill:#75d9ef;}</style></defs><title>Public Transport</title><g id="BULINE"><circle class="cls-1" cx="256" cy="256" r="256"/></g><g id="Icons"><path class="cls-2" d="M432.5,424.25H402.63l-24.11-37H407a12.5,12.5,0,0,0,0-25H362.24l-21.82-33.49a12.5,12.5,0,0,0-20.95,13.64l12.93,19.85H177L189.9,342.4a12.5,12.5,0,0,0-21-13.64l-21.82,33.49H105a12.5,12.5,0,0,0,0,25h25.84l-24.1,37H79.5a12.46,12.46,0,0,0-10.84,6.28A259.43,259.43,0,0,0,88,449.25h2.41l-.87,1.33q9.53,8.16,19.83,15.37l10.88-16.7H389.08l11.69,17.95q10.35-7.09,20-15.18l-1.81-2.77h5a259.43,259.43,0,0,0,19.38-18.72A12.46,12.46,0,0,0,432.5,424.25Zm-295.92,0,24.1-37h188l24.1,37Z"/><path class="cls-3" d="M348.63,340.25q-91.63,54.33-183.26,0c-30.1,0-53.94-29.08-52-63.42l9.37-165.49c2.57-45.42,35.55-80.76,75.36-80.76H315.9c39.81,0,72.79,35.34,75.36,80.76l9.37,165.49C402.57,311.17,378.73,340.25,348.63,340.25Z"/><path class="cls-4" d="M344.5,302.58h-175a49.76,49.76,0,0,1-49.66-53l8.95-138.23a72.11,72.11,0,0,1,72-67.47H313.24a72.11,72.11,0,0,1,72,67.47l9,138.23A49.76,49.76,0,0,1,344.5,302.58Z"/><path class="cls-2" d="M333.34,286.08H180.66a43.41,43.41,0,0,1-43.32-46.21l7.8-120.6a62.93,62.93,0,0,1,62.79-58.86h98.14a62.93,62.93,0,0,1,62.79,58.86l7.8,120.6A43.41,43.41,0,0,1,333.34,286.08Z"/><path class="cls-5" d="M345.16,192.8H168.84A12.44,12.44,0,0,1,156.46,179l7.36-69.32A12.45,12.45,0,0,1,176.2,98.58H337.8a12.46,12.46,0,0,1,12.38,11.14L357.54,179A12.45,12.45,0,0,1,345.16,192.8Z"/><circle class="cls-3" cx="165.42" cy="249.91" r="14"/><circle class="cls-3" cx="197.71" cy="249.91" r="9.62"/><circle class="cls-3" cx="348.61" cy="249.91" r="14"/><circle class="cls-3" cx="316.32" cy="249.91" r="9.62"/><path class="cls-6" d="M294.4,98.58,200.18,192.8H168.84a12.43,12.43,0,0,1-9.69-4.63l89.58-89.59Z"/><path class="cls-6" d="M345.47,101.23,253.9,192.8H228.72l94.21-94.22H337.8A12.4,12.4,0,0,1,345.47,101.23Z"/><path class="cls-2" d="M209,321.41h96a0,0,0,0,1,0,0v0a28.33,28.33,0,0,1-28.33,28.33H237.33A28.33,28.33,0,0,1,209,321.41v0A0,0,0,0,1,209,321.41Z"/><rect class="cls-5" x="209.5" y="69.25" width="96" height="20.17" rx="3.58"/></g></svg>